<mxfile host="65bd71144e">
    <diagram id="fi6jqU09_xZ4XfE2whq4" name="PÃ¡gina-1">
        <mxGraphModel dx="979" dy="575" grid="1" gridSize="10" guides="1" tooltips="1" connect="1" arrows="1" fold="1" page="1" pageScale="1" pageWidth="850" pageHeight="1100" math="0" shadow="0">
            <root>
                <mxCell id="0"/>
                <mxCell id="1" parent="0"/>
                <mxCell id="2" value="" style="swimlane;startSize=0;" parent="1" vertex="1">
                    <mxGeometry width="210" height="320" as="geometry">
                        <mxRectangle width="50" height="40" as="alternateBounds"/>
                    </mxGeometry>
                </mxCell>
                <mxCell id="6" value="img-lupa" style="text;html=1;strokeColor=none;fillColor=none;align=center;verticalAlign=middle;whiteSpace=wrap;rounded=0;" parent="2" vertex="1">
                    <mxGeometry y="10" width="60" height="30" as="geometry"/>
                </mxCell>
                <mxCell id="7" value="Buscar" style="text;html=1;strokeColor=none;fillColor=none;align=center;verticalAlign=middle;whiteSpace=wrap;rounded=0;" parent="2" vertex="1">
                    <mxGeometry x="60" y="10" width="60" height="30" as="geometry"/>
                </mxCell>
                <mxCell id="3" value="" style="swimlane;startSize=0;" parent="1" vertex="1">
                    <mxGeometry x="210" width="430" height="320" as="geometry"/>
                </mxCell>
                <mxCell id="8" value="Sabor Cafetero" style="text;html=1;strokeColor=none;fillColor=none;align=center;verticalAlign=middle;whiteSpace=wrap;rounded=0;" parent="3" vertex="1">
                    <mxGeometry x="90" y="10" width="300" height="30" as="geometry"/>
                </mxCell>
                <mxCell id="9" value="Logo" style="text;html=1;strokeColor=none;fillColor=none;align=center;verticalAlign=middle;whiteSpace=wrap;rounded=0;" parent="3" vertex="1">
                    <mxGeometry x="100" y="10" width="60" height="30" as="geometry"/>
                </mxCell>
                <mxCell id="4" value="" style="swimlane;startSize=0;" parent="1" vertex="1">
                    <mxGeometry x="430" width="210" height="320" as="geometry"/>
                </mxCell>
                <mxCell id="5" value="" style="swimlane;startSize=0;" parent="1" vertex="1">
                    <mxGeometry x="640" width="210" height="320" as="geometry"/>
                </mxCell>
                <mxCell id="10" value="img-Login" style="text;html=1;strokeColor=none;fillColor=none;align=center;verticalAlign=middle;whiteSpace=wrap;rounded=0;" parent="5" vertex="1">
                    <mxGeometry x="80" y="10" width="60" height="30" as="geometry"/>
                </mxCell>
                <mxCell id="11" value="img-carrito" style="text;html=1;strokeColor=none;fillColor=none;align=center;verticalAlign=middle;whiteSpace=wrap;rounded=0;" parent="5" vertex="1">
                    <mxGeometry x="150" y="10" width="60" height="30" as="geometry"/>
                </mxCell>
                <mxCell id="12" value="Imagen de fondo" style="text;html=1;strokeColor=none;fillColor=none;align=center;verticalAlign=middle;whiteSpace=wrap;rounded=0;sketch=0;shadow=0;glass=0;" parent="1" vertex="1">
                    <mxGeometry width="850" height="320" as="geometry"/>
                </mxCell>
                <mxCell id="13" value="" style="rounded=0;whiteSpace=wrap;html=1;shadow=0;glass=0;sketch=0;" parent="1" vertex="1">
                    <mxGeometry y="240" width="210" height="80" as="geometry"/>
                </mxCell>
                <mxCell id="14" value="Boton" style="text;html=1;strokeColor=none;fillColor=none;align=center;verticalAlign=middle;whiteSpace=wrap;rounded=0;shadow=0;glass=0;sketch=0;" parent="1" vertex="1">
                    <mxGeometry x="10" y="250" width="190" height="60" as="geometry"/>
                </mxCell>
                <mxCell id="15" value="" style="rounded=0;whiteSpace=wrap;html=1;shadow=0;glass=0;sketch=0;" parent="1" vertex="1">
                    <mxGeometry x="210" y="240" width="220" height="80" as="geometry"/>
                </mxCell>
                <mxCell id="16" value="" style="rounded=0;whiteSpace=wrap;html=1;shadow=0;glass=0;sketch=0;" parent="1" vertex="1">
                    <mxGeometry x="430" y="240" width="210" height="80" as="geometry"/>
                </mxCell>
                <mxCell id="17" value="" style="rounded=0;whiteSpace=wrap;html=1;shadow=0;glass=0;sketch=0;" parent="1" vertex="1">
                    <mxGeometry x="640" y="240" width="210" height="80" as="geometry"/>
                </mxCell>
                <mxCell id="18" value="Boton" style="text;html=1;strokeColor=none;fillColor=none;align=center;verticalAlign=middle;whiteSpace=wrap;rounded=0;shadow=0;glass=0;sketch=0;" parent="1" vertex="1">
                    <mxGeometry x="220" y="250" width="190" height="60" as="geometry"/>
                </mxCell>
                <mxCell id="19" value="Boton" style="text;html=1;strokeColor=none;fillColor=none;align=center;verticalAlign=middle;whiteSpace=wrap;rounded=0;shadow=0;glass=0;sketch=0;" parent="1" vertex="1">
                    <mxGeometry x="440" y="250" width="190" height="60" as="geometry"/>
                </mxCell>
                <mxCell id="20" value="Boton" style="text;html=1;strokeColor=none;fillColor=none;align=center;verticalAlign=middle;whiteSpace=wrap;rounded=0;shadow=0;glass=0;sketch=0;" parent="1" vertex="1">
                    <mxGeometry x="650" y="250" width="190" height="60" as="geometry"/>
                </mxCell>
                <mxCell id="23" value="" style="ellipse;whiteSpace=wrap;html=1;aspect=fixed;rounded=0;shadow=0;glass=0;sketch=0;" parent="1" vertex="1">
                    <mxGeometry x="80" y="330" width="40" height="40" as="geometry"/>
                </mxCell>
                <mxCell id="24" value="" style="ellipse;whiteSpace=wrap;html=1;aspect=fixed;rounded=0;shadow=0;glass=0;sketch=0;" parent="1" vertex="1">
                    <mxGeometry x="650" y="330" width="40" height="40" as="geometry"/>
                </mxCell>
                <mxCell id="25" value="" style="ellipse;whiteSpace=wrap;html=1;aspect=fixed;rounded=0;shadow=0;glass=0;sketch=0;" parent="1" vertex="1">
                    <mxGeometry x="470" y="330" width="40" height="40" as="geometry"/>
                </mxCell>
                <mxCell id="26" value="" style="ellipse;whiteSpace=wrap;html=1;aspect=fixed;rounded=0;shadow=0;glass=0;sketch=0;" parent="1" vertex="1">
                    <mxGeometry x="280" y="330" width="40" height="40" as="geometry"/>
                </mxCell>
                <mxCell id="29" value="Icon" style="text;html=1;strokeColor=none;fillColor=none;align=center;verticalAlign=middle;whiteSpace=wrap;rounded=0;shadow=0;glass=0;sketch=0;" parent="1" vertex="1">
                    <mxGeometry x="70" y="335" width="60" height="30" as="geometry"/>
                </mxCell>
                <mxCell id="30" value="Icon" style="text;html=1;strokeColor=none;fillColor=none;align=center;verticalAlign=middle;whiteSpace=wrap;rounded=0;shadow=0;glass=0;sketch=0;" parent="1" vertex="1">
                    <mxGeometry x="640" y="335" width="60" height="30" as="geometry"/>
                </mxCell>
                <mxCell id="31" value="Icon" style="text;html=1;strokeColor=none;fillColor=none;align=center;verticalAlign=middle;whiteSpace=wrap;rounded=0;shadow=0;glass=0;sketch=0;" parent="1" vertex="1">
                    <mxGeometry x="460" y="335" width="60" height="30" as="geometry"/>
                </mxCell>
                <mxCell id="32" value="Icon" style="text;html=1;strokeColor=none;fillColor=none;align=center;verticalAlign=middle;whiteSpace=wrap;rounded=0;shadow=0;glass=0;sketch=0;" parent="1" vertex="1">
                    <mxGeometry x="270" y="335" width="60" height="30" as="geometry"/>
                </mxCell>
                <mxCell id="33" value="&lt;h1 style=&quot;font-size: 11px&quot;&gt;Heading&lt;/h1&gt;&lt;p style=&quot;font-size: 11px&quot;&gt;Lorem ipsum dolor sit amet, consectetur&lt;/p&gt;" style="text;html=1;strokeColor=none;fillColor=none;spacing=5;spacingTop=-20;whiteSpace=wrap;overflow=hidden;rounded=0;shadow=0;glass=0;sketch=0;fontSize=11;" parent="1" vertex="1">
                    <mxGeometry x="130" y="330" width="120" height="60" as="geometry"/>
                </mxCell>
                <mxCell id="34" value="&lt;h1 style=&quot;font-size: 11px&quot;&gt;Heading&lt;/h1&gt;&lt;p style=&quot;font-size: 11px&quot;&gt;Lorem ipsum dolor sit amet, consectetur&lt;/p&gt;" style="text;html=1;strokeColor=none;fillColor=none;spacing=5;spacingTop=-20;whiteSpace=wrap;overflow=hidden;rounded=0;shadow=0;glass=0;sketch=0;fontSize=11;" parent="1" vertex="1">
                    <mxGeometry x="700" y="335" width="120" height="60" as="geometry"/>
                </mxCell>
                <mxCell id="35" value="&lt;h1 style=&quot;font-size: 11px&quot;&gt;Heading&lt;/h1&gt;&lt;p style=&quot;font-size: 11px&quot;&gt;Lorem ipsum dolor sit amet, consectetur&lt;/p&gt;" style="text;html=1;strokeColor=none;fillColor=none;spacing=5;spacingTop=-20;whiteSpace=wrap;overflow=hidden;rounded=0;shadow=0;glass=0;sketch=0;fontSize=11;" parent="1" vertex="1">
                    <mxGeometry x="520" y="335" width="120" height="60" as="geometry"/>
                </mxCell>
                <mxCell id="36" value="&lt;h1 style=&quot;font-size: 11px&quot;&gt;Heading&lt;/h1&gt;&lt;p style=&quot;font-size: 11px&quot;&gt;Lorem ipsum dolor sit amet, consectetur&lt;/p&gt;" style="text;html=1;strokeColor=none;fillColor=none;spacing=5;spacingTop=-20;whiteSpace=wrap;overflow=hidden;rounded=0;shadow=0;glass=0;sketch=0;fontSize=11;" parent="1" vertex="1">
                    <mxGeometry x="330" y="335" width="120" height="60" as="geometry"/>
                </mxCell>
                <mxCell id="37" value="" style="swimlane;startSize=0;rounded=0;shadow=0;glass=0;sketch=0;fontSize=11;" parent="1" vertex="1">
                    <mxGeometry x="5" y="395" width="845" height="415" as="geometry"/>
                </mxCell>
                <mxCell id="38" value="Titulo seccion de productos 1" style="text;html=1;strokeColor=none;fillColor=none;align=center;verticalAlign=middle;whiteSpace=wrap;rounded=0;shadow=0;glass=0;sketch=0;fontSize=17;" parent="37" vertex="1">
                    <mxGeometry x="298" y="15" width="245" height="30" as="geometry"/>
                </mxCell>
                <mxCell id="39" value="" style="swimlane;startSize=0;rounded=0;shadow=0;glass=0;sketch=0;fontSize=17;" parent="37" vertex="1">
                    <mxGeometry x="35" y="82.5" width="165" height="217.5" as="geometry"/>
                </mxCell>
                <mxCell id="40" value="" style="rounded=1;whiteSpace=wrap;html=1;shadow=0;glass=0;sketch=0;fontSize=17;" parent="39" vertex="1">
                    <mxGeometry y="2.5" width="160" height="107.5" as="geometry"/>
                </mxCell>
                <mxCell id="41" value="Imagen producto" style="text;html=1;strokeColor=none;fillColor=none;align=center;verticalAlign=middle;whiteSpace=wrap;rounded=0;shadow=0;glass=0;sketch=0;fontSize=17;" parent="39" vertex="1">
                    <mxGeometry x="52.5" y="41.25" width="60" height="30" as="geometry"/>
                </mxCell>
                <mxCell id="51" value="Nombre producto" style="text;html=1;strokeColor=none;fillColor=none;align=center;verticalAlign=middle;whiteSpace=wrap;rounded=0;shadow=0;glass=0;sketch=0;fontSize=17;" parent="39" vertex="1">
                    <mxGeometry x="10" y="122.5" width="140" height="30" as="geometry"/>
                </mxCell>
                <mxCell id="55" value="Precio" style="text;html=1;strokeColor=none;fillColor=none;align=center;verticalAlign=middle;whiteSpace=wrap;rounded=0;shadow=0;glass=0;sketch=0;fontSize=17;" parent="39" vertex="1">
                    <mxGeometry x="10" y="152.5" width="140" height="30" as="geometry"/>
                </mxCell>
                <mxCell id="62" value="Aregar" style="text;html=1;strokeColor=none;fillColor=none;align=center;verticalAlign=middle;whiteSpace=wrap;rounded=0;shadow=0;glass=0;sketch=0;fontSize=17;" parent="39" vertex="1">
                    <mxGeometry x="10" y="182.5" width="140" height="30" as="geometry"/>
                </mxCell>
                <mxCell id="42" value="" style="swimlane;startSize=0;rounded=0;shadow=0;glass=0;sketch=0;fontSize=17;" parent="37" vertex="1">
                    <mxGeometry x="235" y="82.5" width="165" height="217.5" as="geometry"/>
                </mxCell>
                <mxCell id="43" value="" style="rounded=1;whiteSpace=wrap;html=1;shadow=0;glass=0;sketch=0;fontSize=17;" parent="42" vertex="1">
                    <mxGeometry y="2.5" width="160" height="107.5" as="geometry"/>
                </mxCell>
                <mxCell id="44" value="Imagen producto" style="text;html=1;strokeColor=none;fillColor=none;align=center;verticalAlign=middle;whiteSpace=wrap;rounded=0;shadow=0;glass=0;sketch=0;fontSize=17;" parent="42" vertex="1">
                    <mxGeometry x="52.5" y="41.25" width="60" height="30" as="geometry"/>
                </mxCell>
                <mxCell id="54" value="Nombre producto" style="text;html=1;strokeColor=none;fillColor=none;align=center;verticalAlign=middle;whiteSpace=wrap;rounded=0;shadow=0;glass=0;sketch=0;fontSize=17;" parent="42" vertex="1">
                    <mxGeometry x="10" y="122.5" width="140" height="30" as="geometry"/>
                </mxCell>
                <mxCell id="58" value="Precio" style="text;html=1;strokeColor=none;fillColor=none;align=center;verticalAlign=middle;whiteSpace=wrap;rounded=0;shadow=0;glass=0;sketch=0;fontSize=17;" parent="42" vertex="1">
                    <mxGeometry x="10" y="152.5" width="140" height="30" as="geometry"/>
                </mxCell>
                <mxCell id="61" value="Agregar" style="text;html=1;strokeColor=none;fillColor=none;align=center;verticalAlign=middle;whiteSpace=wrap;rounded=0;shadow=0;glass=0;sketch=0;fontSize=17;" parent="42" vertex="1">
                    <mxGeometry x="10" y="182.5" width="140" height="30" as="geometry"/>
                </mxCell>
                <mxCell id="45" value="" style="swimlane;startSize=0;rounded=0;shadow=0;glass=0;sketch=0;fontSize=17;" parent="37" vertex="1">
                    <mxGeometry x="435" y="82.5" width="165" height="217.5" as="geometry"/>
                </mxCell>
                <mxCell id="46" value="" style="rounded=1;whiteSpace=wrap;html=1;shadow=0;glass=0;sketch=0;fontSize=17;" parent="45" vertex="1">
                    <mxGeometry y="2.5" width="160" height="107.5" as="geometry"/>
                </mxCell>
                <mxCell id="47" value="Imagen producto" style="text;html=1;strokeColor=none;fillColor=none;align=center;verticalAlign=middle;whiteSpace=wrap;rounded=0;shadow=0;glass=0;sketch=0;fontSize=17;" parent="45" vertex="1">
                    <mxGeometry x="52.5" y="41.25" width="60" height="30" as="geometry"/>
                </mxCell>
                <mxCell id="53" value="Nombre producto" style="text;html=1;strokeColor=none;fillColor=none;align=center;verticalAlign=middle;whiteSpace=wrap;rounded=0;shadow=0;glass=0;sketch=0;fontSize=17;" parent="45" vertex="1">
                    <mxGeometry x="10" y="122.5" width="140" height="30" as="geometry"/>
                </mxCell>
                <mxCell id="57" value="Precio" style="text;html=1;strokeColor=none;fillColor=none;align=center;verticalAlign=middle;whiteSpace=wrap;rounded=0;shadow=0;glass=0;sketch=0;fontSize=17;" parent="45" vertex="1">
                    <mxGeometry x="12.5" y="152.5" width="140" height="30" as="geometry"/>
                </mxCell>
                <mxCell id="60" value="Agregar" style="text;html=1;strokeColor=none;fillColor=none;align=center;verticalAlign=middle;whiteSpace=wrap;rounded=0;shadow=0;glass=0;sketch=0;fontSize=17;" parent="45" vertex="1">
                    <mxGeometry x="12.5" y="182.5" width="140" height="30" as="geometry"/>
                </mxCell>
                <mxCell id="48" value="" style="swimlane;startSize=0;rounded=0;shadow=0;glass=0;sketch=0;fontSize=17;" parent="37" vertex="1">
                    <mxGeometry x="635" y="82.5" width="165" height="217.5" as="geometry"/>
                </mxCell>
                <mxCell id="49" value="" style="rounded=1;whiteSpace=wrap;html=1;shadow=0;glass=0;sketch=0;fontSize=17;" parent="48" vertex="1">
                    <mxGeometry y="2.5" width="160" height="107.5" as="geometry"/>
                </mxCell>
                <mxCell id="50" value="Imagen producto" style="text;html=1;strokeColor=none;fillColor=none;align=center;verticalAlign=middle;whiteSpace=wrap;rounded=0;shadow=0;glass=0;sketch=0;fontSize=17;" parent="48" vertex="1">
                    <mxGeometry x="52.5" y="41.25" width="60" height="30" as="geometry"/>
                </mxCell>
                <mxCell id="52" value="Nombre producto" style="text;html=1;strokeColor=none;fillColor=none;align=center;verticalAlign=middle;whiteSpace=wrap;rounded=0;shadow=0;glass=0;sketch=0;fontSize=17;" parent="48" vertex="1">
                    <mxGeometry x="12.5" y="122.5" width="140" height="30" as="geometry"/>
                </mxCell>
                <mxCell id="56" value="Precio" style="text;html=1;strokeColor=none;fillColor=none;align=center;verticalAlign=middle;whiteSpace=wrap;rounded=0;shadow=0;glass=0;sketch=0;fontSize=17;" parent="48" vertex="1">
                    <mxGeometry x="10" y="152.5" width="140" height="30" as="geometry"/>
                </mxCell>
                <mxCell id="59" value="Agregar" style="text;html=1;strokeColor=none;fillColor=none;align=center;verticalAlign=middle;whiteSpace=wrap;rounded=0;shadow=0;glass=0;sketch=0;fontSize=17;" parent="48" vertex="1">
                    <mxGeometry x="10" y="182.5" width="140" height="30" as="geometry"/>
                </mxCell>
                <mxCell id="63" value="" style="rounded=1;whiteSpace=wrap;html=1;shadow=0;glass=0;sketch=0;fontSize=17;" parent="37" vertex="1">
                    <mxGeometry x="330" y="350" width="170" height="35" as="geometry"/>
                </mxCell>
                <mxCell id="64" value="Boton ver todo" style="text;html=1;strokeColor=none;fillColor=none;align=center;verticalAlign=middle;whiteSpace=wrap;rounded=0;shadow=0;glass=0;sketch=0;fontSize=17;" parent="37" vertex="1">
                    <mxGeometry x="330" y="352.5" width="170" height="30" as="geometry"/>
                </mxCell>
                <mxCell id="65" value="" style="swimlane;startSize=0;rounded=0;shadow=0;glass=0;sketch=0;fontSize=11;" parent="1" vertex="1">
                    <mxGeometry y="810" width="850" height="440" as="geometry"/>
                </mxCell>
                <mxCell id="66" value="Titulo seccion de productos 2" style="text;html=1;strokeColor=none;fillColor=none;align=center;verticalAlign=middle;whiteSpace=wrap;rounded=0;shadow=0;glass=0;sketch=0;fontSize=17;" parent="65" vertex="1">
                    <mxGeometry x="298" y="15" width="245" height="30" as="geometry"/>
                </mxCell>
                <mxCell id="67" value="" style="swimlane;startSize=0;rounded=0;shadow=0;glass=0;sketch=0;fontSize=17;" parent="65" vertex="1">
                    <mxGeometry x="35" y="82.5" width="165" height="217.5" as="geometry"/>
                </mxCell>
                <mxCell id="68" value="" style="rounded=1;whiteSpace=wrap;html=1;shadow=0;glass=0;sketch=0;fontSize=17;" parent="67" vertex="1">
                    <mxGeometry y="2.5" width="160" height="107.5" as="geometry"/>
                </mxCell>
                <mxCell id="69" value="Imagen producto" style="text;html=1;strokeColor=none;fillColor=none;align=center;verticalAlign=middle;whiteSpace=wrap;rounded=0;shadow=0;glass=0;sketch=0;fontSize=17;" parent="67" vertex="1">
                    <mxGeometry x="52.5" y="41.25" width="60" height="30" as="geometry"/>
                </mxCell>
                <mxCell id="70" value="Nombre producto" style="text;html=1;strokeColor=none;fillColor=none;align=center;verticalAlign=middle;whiteSpace=wrap;rounded=0;shadow=0;glass=0;sketch=0;fontSize=17;" parent="67" vertex="1">
                    <mxGeometry x="10" y="122.5" width="140" height="30" as="geometry"/>
                </mxCell>
                <mxCell id="71" value="Precio" style="text;html=1;strokeColor=none;fillColor=none;align=center;verticalAlign=middle;whiteSpace=wrap;rounded=0;shadow=0;glass=0;sketch=0;fontSize=17;" parent="67" vertex="1">
                    <mxGeometry x="10" y="152.5" width="140" height="30" as="geometry"/>
                </mxCell>
                <mxCell id="72" value="Aregar" style="text;html=1;strokeColor=none;fillColor=none;align=center;verticalAlign=middle;whiteSpace=wrap;rounded=0;shadow=0;glass=0;sketch=0;fontSize=17;" parent="67" vertex="1">
                    <mxGeometry x="10" y="182.5" width="140" height="30" as="geometry"/>
                </mxCell>
                <mxCell id="73" value="" style="swimlane;startSize=0;rounded=0;shadow=0;glass=0;sketch=0;fontSize=17;" parent="65" vertex="1">
                    <mxGeometry x="235" y="82.5" width="165" height="217.5" as="geometry"/>
                </mxCell>
                <mxCell id="74" value="" style="rounded=1;whiteSpace=wrap;html=1;shadow=0;glass=0;sketch=0;fontSize=17;" parent="73" vertex="1">
                    <mxGeometry y="2.5" width="160" height="107.5" as="geometry"/>
                </mxCell>
                <mxCell id="75" value="Imagen producto" style="text;html=1;strokeColor=none;fillColor=none;align=center;verticalAlign=middle;whiteSpace=wrap;rounded=0;shadow=0;glass=0;sketch=0;fontSize=17;" parent="73" vertex="1">
                    <mxGeometry x="52.5" y="41.25" width="60" height="30" as="geometry"/>
                </mxCell>
                <mxCell id="76" value="Nombre producto" style="text;html=1;strokeColor=none;fillColor=none;align=center;verticalAlign=middle;whiteSpace=wrap;rounded=0;shadow=0;glass=0;sketch=0;fontSize=17;" parent="73" vertex="1">
                    <mxGeometry x="10" y="122.5" width="140" height="30" as="geometry"/>
                </mxCell>
                <mxCell id="77" value="Precio" style="text;html=1;strokeColor=none;fillColor=none;align=center;verticalAlign=middle;whiteSpace=wrap;rounded=0;shadow=0;glass=0;sketch=0;fontSize=17;" parent="73" vertex="1">
                    <mxGeometry x="10" y="152.5" width="140" height="30" as="geometry"/>
                </mxCell>
                <mxCell id="78" value="Agregar" style="text;html=1;strokeColor=none;fillColor=none;align=center;verticalAlign=middle;whiteSpace=wrap;rounded=0;shadow=0;glass=0;sketch=0;fontSize=17;" parent="73" vertex="1">
                    <mxGeometry x="10" y="182.5" width="140" height="30" as="geometry"/>
                </mxCell>
                <mxCell id="79" value="" style="swimlane;startSize=0;rounded=0;shadow=0;glass=0;sketch=0;fontSize=17;" parent="65" vertex="1">
                    <mxGeometry x="435" y="82.5" width="165" height="217.5" as="geometry"/>
                </mxCell>
                <mxCell id="80" value="" style="rounded=1;whiteSpace=wrap;html=1;shadow=0;glass=0;sketch=0;fontSize=17;" parent="79" vertex="1">
                    <mxGeometry y="2.5" width="160" height="107.5" as="geometry"/>
                </mxCell>
                <mxCell id="81" value="Imagen producto" style="text;html=1;strokeColor=none;fillColor=none;align=center;verticalAlign=middle;whiteSpace=wrap;rounded=0;shadow=0;glass=0;sketch=0;fontSize=17;" parent="79" vertex="1">
                    <mxGeometry x="52.5" y="41.25" width="60" height="30" as="geometry"/>
                </mxCell>
                <mxCell id="82" value="Nombre producto" style="text;html=1;strokeColor=none;fillColor=none;align=center;verticalAlign=middle;whiteSpace=wrap;rounded=0;shadow=0;glass=0;sketch=0;fontSize=17;" parent="79" vertex="1">
                    <mxGeometry x="10" y="122.5" width="140" height="30" as="geometry"/>
                </mxCell>
                <mxCell id="83" value="Precio" style="text;html=1;strokeColor=none;fillColor=none;align=center;verticalAlign=middle;whiteSpace=wrap;rounded=0;shadow=0;glass=0;sketch=0;fontSize=17;" parent="79" vertex="1">
                    <mxGeometry x="12.5" y="152.5" width="140" height="30" as="geometry"/>
                </mxCell>
                <mxCell id="84" value="Agregar" style="text;html=1;strokeColor=none;fillColor=none;align=center;verticalAlign=middle;whiteSpace=wrap;rounded=0;shadow=0;glass=0;sketch=0;fontSize=17;" parent="79" vertex="1">
                    <mxGeometry x="12.5" y="182.5" width="140" height="30" as="geometry"/>
                </mxCell>
                <mxCell id="85" value="" style="swimlane;startSize=0;rounded=0;shadow=0;glass=0;sketch=0;fontSize=17;" parent="65" vertex="1">
                    <mxGeometry x="635" y="82.5" width="165" height="217.5" as="geometry"/>
                </mxCell>
                <mxCell id="86" value="" style="rounded=1;whiteSpace=wrap;html=1;shadow=0;glass=0;sketch=0;fontSize=17;" parent="85" vertex="1">
                    <mxGeometry y="2.5" width="160" height="107.5" as="geometry"/>
                </mxCell>
                <mxCell id="87" value="Imagen producto" style="text;html=1;strokeColor=none;fillColor=none;align=center;verticalAlign=middle;whiteSpace=wrap;rounded=0;shadow=0;glass=0;sketch=0;fontSize=17;" parent="85" vertex="1">
                    <mxGeometry x="52.5" y="41.25" width="60" height="30" as="geometry"/>
                </mxCell>
                <mxCell id="88" value="Nombre producto" style="text;html=1;strokeColor=none;fillColor=none;align=center;verticalAlign=middle;whiteSpace=wrap;rounded=0;shadow=0;glass=0;sketch=0;fontSize=17;" parent="85" vertex="1">
                    <mxGeometry x="12.5" y="122.5" width="140" height="30" as="geometry"/>
                </mxCell>
                <mxCell id="89" value="Precio" style="text;html=1;strokeColor=none;fillColor=none;align=center;verticalAlign=middle;whiteSpace=wrap;rounded=0;shadow=0;glass=0;sketch=0;fontSize=17;" parent="85" vertex="1">
                    <mxGeometry x="10" y="152.5" width="140" height="30" as="geometry"/>
                </mxCell>
                <mxCell id="90" value="Agregar" style="text;html=1;strokeColor=none;fillColor=none;align=center;verticalAlign=middle;whiteSpace=wrap;rounded=0;shadow=0;glass=0;sketch=0;fontSize=17;" parent="85" vertex="1">
                    <mxGeometry x="10" y="182.5" width="140" height="30" as="geometry"/>
                </mxCell>
                <mxCell id="91" value="" style="rounded=1;whiteSpace=wrap;html=1;shadow=0;glass=0;sketch=0;fontSize=17;" parent="65" vertex="1">
                    <mxGeometry x="330" y="367.5" width="170" height="35" as="geometry"/>
                </mxCell>
                <mxCell id="92" value="Boton ver todo" style="text;html=1;strokeColor=none;fillColor=none;align=center;verticalAlign=middle;whiteSpace=wrap;rounded=0;shadow=0;glass=0;sketch=0;fontSize=17;" parent="65" vertex="1">
                    <mxGeometry x="330" y="370" width="170" height="30" as="geometry"/>
                </mxCell>
                <mxCell id="93" value="" style="swimlane;startSize=0;" vertex="1" parent="1">
                    <mxGeometry y="1250" width="850" height="390" as="geometry"/>
                </mxCell>
                <mxCell id="95" value="" style="rounded=0;whiteSpace=wrap;html=1;" vertex="1" parent="93">
                    <mxGeometry width="400" height="390" as="geometry"/>
                </mxCell>
                <mxCell id="96" value="&lt;font style=&quot;font-size: 23px&quot;&gt;Imagen decorativa&lt;/font&gt;" style="text;html=1;strokeColor=none;fillColor=none;align=center;verticalAlign=middle;whiteSpace=wrap;rounded=0;strokeWidth=1;" vertex="1" parent="93">
                    <mxGeometry x="32.5" y="65" width="335" height="245" as="geometry"/>
                </mxCell>
                <mxCell id="97" value="Contactenos" style="text;html=1;strokeColor=none;fillColor=none;align=center;verticalAlign=middle;whiteSpace=wrap;rounded=0;fontSize=23;" vertex="1" parent="93">
                    <mxGeometry x="440" y="35" width="360" height="30" as="geometry"/>
                </mxCell>
                <mxCell id="98" value="" style="rounded=0;whiteSpace=wrap;html=1;fontSize=23;strokeWidth=1;" vertex="1" parent="93">
                    <mxGeometry x="440" y="90" width="380" height="45" as="geometry"/>
                </mxCell>
                <mxCell id="99" value="Nombre" style="text;html=1;strokeColor=none;fillColor=none;align=left;verticalAlign=middle;whiteSpace=wrap;rounded=0;fontSize=23;" vertex="1" parent="93">
                    <mxGeometry x="460" y="97.5" width="240" height="30" as="geometry"/>
                </mxCell>
                <mxCell id="101" value="" style="rounded=0;whiteSpace=wrap;html=1;fontSize=23;strokeWidth=1;" vertex="1" parent="93">
                    <mxGeometry x="440" y="152.5" width="380" height="87.5" as="geometry"/>
                </mxCell>
                <mxCell id="102" value="Mensaje" style="text;html=1;strokeColor=none;fillColor=none;align=left;verticalAlign=middle;whiteSpace=wrap;rounded=0;fontSize=23;" vertex="1" parent="93">
                    <mxGeometry x="460" y="160" width="240" height="30" as="geometry"/>
                </mxCell>
                <mxCell id="103" value="" style="rounded=1;whiteSpace=wrap;html=1;fontSize=23;strokeWidth=1;" vertex="1" parent="93">
                    <mxGeometry x="440" y="265" width="200" height="60" as="geometry"/>
                </mxCell>
                <mxCell id="104" value="Enviar" style="text;html=1;strokeColor=none;fillColor=none;align=center;verticalAlign=middle;whiteSpace=wrap;rounded=0;fontSize=23;" vertex="1" parent="93">
                    <mxGeometry x="510" y="280" width="60" height="30" as="geometry"/>
                </mxCell>
                <mxCell id="105" value="" style="swimlane;startSize=0;fontSize=23;strokeWidth=1;" vertex="1" parent="1">
                    <mxGeometry y="1640" width="850" height="125" as="geometry"/>
                </mxCell>
                <mxCell id="106" value="&lt;span style=&quot;color: rgb(255 , 255 , 255) ; font-family: &amp;#34;poppins&amp;#34; , sans-serif ; background-color: rgb(44 , 44 , 44)&quot;&gt;&lt;font style=&quot;font-size: 24px&quot;&gt;Â© 2022&amp;nbsp;&lt;/font&gt;&lt;/span&gt;Sabor Cafetero" style="text;html=1;strokeColor=none;fillColor=none;align=center;verticalAlign=middle;whiteSpace=wrap;rounded=0;fontSize=23;" vertex="1" parent="105">
                    <mxGeometry x="280" y="47.5" width="350" height="30" as="geometry"/>
                </mxCell>
            </root>
        </mxGraphModel>
    </diagram>
</mxfile>